<svg xmlns="http://www.w3.org/2000/svg" version="1.1" xmlns:xlink="http://www.w3.org/1999/xlink" width="512" height="512" x="0" y="0" viewBox="0 0 24 24" style="enable-background:new 0 0 512 512" xml:space="preserve" class=""><g><g fill="#000"><path d="M2 5a3 3 0 0 1 3-3h2.571a3 3 0 0 1 3 3v2.571a3 3 0 0 1-3 3H5a3 3 0 0 1-3-3z" fill="#000000" opacity="1" data-original="#000000" class=""></path><path fill-rule="evenodd" d="M1.25 5A3.75 3.75 0 0 1 5 1.25h2.571A3.75 3.75 0 0 1 11.321 5v2.571a3.75 3.75 0 0 1-3.75 3.75H5a3.75 3.75 0 0 1-3.75-3.75zM5 2.75A2.25 2.25 0 0 0 2.75 5v2.571A2.25 2.25 0 0 0 5 9.821h2.571a2.25 2.25 0 0 0 2.25-2.25V5a2.25 2.25 0 0 0-2.25-2.25z" clip-rule="evenodd" fill="#000000" opacity="1" data-original="#000000" class=""></path><path d="M13.429 5a3 3 0 0 1 3-3H19a3 3 0 0 1 3 3v2.571a3 3 0 0 1-3 3h-2.571a3 3 0 0 1-3-3z" fill="#000000" opacity="1" data-original="#000000" class=""></path><path fill-rule="evenodd" d="M12.679 5a3.75 3.75 0 0 1 3.75-3.75H19A3.75 3.75 0 0 1 22.75 5v2.571a3.75 3.75 0 0 1-3.75 3.75h-2.571a3.75 3.75 0 0 1-3.75-3.75zm3.75-2.25A2.25 2.25 0 0 0 14.179 5v2.571a2.25 2.25 0 0 0 2.25 2.25H19a2.25 2.25 0 0 0 2.25-2.25V5A2.25 2.25 0 0 0 19 2.75z" clip-rule="evenodd" fill="#000000" opacity="1" data-original="#000000" class=""></path><path d="M13.429 16.429a3 3 0 0 1 3-3H19a3 3 0 0 1 3 3V19a3 3 0 0 1-3 3h-2.571a3 3 0 0 1-3-3z" fill="#000000" opacity="1" data-original="#000000" class=""></path><path fill-rule="evenodd" d="M12.679 16.429a3.75 3.75 0 0 1 3.75-3.75H19a3.75 3.75 0 0 1 3.75 3.75V19A3.75 3.75 0 0 1 19 22.75h-2.571a3.75 3.75 0 0 1-3.75-3.75zm3.75-2.25a2.25 2.25 0 0 0-2.25 2.25V19a2.25 2.25 0 0 0 2.25 2.25H19A2.25 2.25 0 0 0 21.25 19v-2.571a2.25 2.25 0 0 0-2.25-2.25z" clip-rule="evenodd" fill="#000000" opacity="1" data-original="#000000" class=""></path><path d="M2 16.429a3 3 0 0 1 3-3h2.571a3 3 0 0 1 3 3V19a3 3 0 0 1-3 3H5a3 3 0 0 1-3-3z" fill="#000000" opacity="1" data-original="#000000" class=""></path><path fill-rule="evenodd" d="M1.25 16.429A3.75 3.75 0 0 1 5 12.679h2.571a3.75 3.75 0 0 1 3.75 3.75V19a3.75 3.75 0 0 1-3.75 3.75H5A3.75 3.75 0 0 1 1.25 19zM5 14.179a2.25 2.25 0 0 0-2.25 2.25V19A2.25 2.25 0 0 0 5 21.25h2.571A2.25 2.25 0 0 0 9.821 19v-2.571a2.25 2.25 0 0 0-2.25-2.25z" clip-rule="evenodd" fill="#000000" opacity="1" data-original="#000000" class=""></path></g></g></svg>